<?xml version="1.0" encoding="utf-8"?>
<!-- Uploaded to: SVG Repo, www.svgrepo.com, Generator: SVG Repo Mixer Tools -->
<svg width="800px" height="800px" viewBox="0 0 1024 1024" class="icon"  version="1.1" xmlns="http://www.w3.org/2000/svg"><path d="M513.118916 437.448222l171.130218-159.1738-84.71793-33.279761-3.676438-3.996128 124.807093-123.688177 4.092036 4.124004c85.517155 64.25775 140.759639 81.297243 140.759639 281.775031v499.484125h-135.836409v86.731978h-291.269832v-476.498392l-0.959071-5.115045 75.670694-70.363835z" fill="#FFB578" /><path d="M648.12413 31.953045l-17.646905 30.562393-117.358309 203.227124-116.559083-201.852456-18.446131-31.937061z" fill="#5FCEFF" /><path d="M513.118916 435.082514v-169.339952l117.358309-203.227124 7.065156 4.092036 100.702444 33.27976-17.582966 17.423122-124.807093 123.688177 3.676438 3.996128 84.71793 33.279761-171.130218 159.1738z" fill="#FF4893" /><path d="M296.560707 902.693516h-135.836409v-499.484125c0-200.349911 55.210515-217.357435 140.599794-281.679123l5.786395-5.850333 126.405544 125.318598-0.479535 3.996128-87.882864 33.279761 167.965284 156.808092v2.365708l-75.670694 70.363835 0.959071 5.115045v476.498392h-141.846586v-86.731978z" fill="#FFB578" /><path d="M513.118916 265.742562v169.339952l-167.965284-156.808092 87.882864-33.279761 0.479535-3.996128-126.405544-125.318598-15.920577-15.792701 100.638506-33.27976 4.731417-2.717368z" fill="#FF4893" /><path d="M865.513534 925.071837a22.378321 22.378321 0 0 1-22.378321-22.378321v-499.484125c0-168.556711-37.73944-195.768749-106.249071-245.170491-8.193662-5.911074-16.668652-12.020355-25.575224-18.71467a22.378321 22.378321 0 1 1 26.885954-35.779739c8.554912 6.428972 16.850876 12.407181 24.865511 18.190378 72.470594 52.256576 124.829471 90.012001 124.829472 281.474522v499.484125a22.378321 22.378321 0 0 1-22.378321 22.378321zM160.724298 925.071837a22.378321 22.378321 0 0 1-22.378321-22.378321v-499.484125c0-191.245131 52.256576-229.010146 124.58331-281.276314 8.040211-5.808773 16.352159-11.815753 24.92945-18.279891a22.378321 22.378321 0 0 1 26.930711 35.747769c-8.932147 6.726284-17.429515 12.867535-25.645556 18.804184-68.375361 49.41453-106.041273 76.629765-106.041273 245.001055v499.484125a22.378321 22.378321 0 0 1-22.378321 22.381518z" fill="#4F46A3" /><path d="M729.677125 1011.803815H296.560707a22.378321 22.378321 0 0 1-22.378321-22.378321v-603.575286a22.378321 22.378321 0 1 1 44.756642 0v581.196965h388.359776v-581.196965a22.378321 22.378321 0 1 1 44.756642 0v603.575286a22.378321 22.378321 0 0 1-22.378321 22.378321zM513.118916 288.120883a22.378321 22.378321 0 0 1-19.379626-11.189161l-135.002017-233.789516a22.378321 22.378321 0 0 1 19.379626-33.567482h270.010428a22.381518 22.381518 0 0 1 19.379626 33.567482l-135.002017 233.789516a22.394306 22.394306 0 0 1-19.38602 11.189161z m-96.236371-233.789517l96.239568 166.660948 96.242765-166.660948h-192.482333z" fill="#4F46A3" /><path d="M513.115719 457.460835a22.304792 22.304792 0 0 1-15.265212-6.019769l-167.965283-156.808092a22.375124 22.375124 0 0 1 7.346483-37.285479l87.882863-33.279761a22.378321 22.378321 0 0 1 15.850245 41.853854l-54.241853 20.540102 141.670757 132.262271a22.378321 22.378321 0 0 1-15.278 38.736874z" fill="#4F46A3" /><path d="M433.516031 263.376854a22.304792 22.304792 0 0 1-15.754338-6.486517L275.429178 115.775842A22.371927 22.371927 0 0 1 284.163117 78.643814l100.638506-33.27976a22.378321 22.378321 0 1 1 14.053586 42.493234l-66.006456 21.828454 116.424813 115.424183a22.375124 22.375124 0 0 1-15.757535 38.266929zM437.454616 530.190378a22.384715 22.384715 0 0 1-15.242834-38.768843l220.762137-205.321095-51.62359-20.281152a22.378321 22.378321 0 0 1-12.646948-29.011895 22.371927 22.371927 0 0 1 29.011895-12.646948l84.717929 33.27976a22.378321 22.378321 0 0 1 7.058762 37.211951l-246.804108 229.540832a22.301595 22.301595 0 0 1-15.233243 5.99739z" fill="#4F46A3" /><path d="M595.854766 263.376854a22.295202 22.295202 0 0 1-15.895002-6.62718 22.375124 22.375124 0 0 1 0.140664-31.646143l116.463176-115.420986-66.044819-21.825257a22.378321 22.378321 0 0 1-14.226218-28.270213 22.375124 22.375124 0 0 1 28.270213-14.226218l100.702444 33.27976a22.375124 22.375124 0 0 1 8.727546 37.144816l-142.383666 141.111298a22.314383 22.314383 0 0 1-15.754338 6.480123zM438.407293 1011.803815a22.378321 22.378321 0 0 1-22.378321-22.378321v-476.498392a22.378321 22.378321 0 1 1 44.756642 0v476.498392a22.378321 22.378321 0 0 1-22.378321 22.378321zM513.118916 460.657738a22.378321 22.378321 0 0 1-22.378321-22.378321v-172.536855a22.378321 22.378321 0 1 1 44.756642 0v172.536855a22.378321 22.378321 0 0 1-22.378321 22.378321zM291.18991 925.071837h-130.465612a22.378321 22.378321 0 1 1 0-44.756642h130.465612a22.378321 22.378321 0 1 1 0 44.756642zM865.513534 925.071837h-127.271906a22.378321 22.378321 0 1 1 0-44.756642h127.271906a22.378321 22.378321 0 1 1 0 44.756642zM513.118916 607.523462a22.378321 22.378321 0 0 1-22.378321-22.378321v-25.575224a22.378321 22.378321 0 1 1 44.756642 0v25.575224a22.378321 22.378321 0 0 1-22.378321 22.378321zM513.118916 735.399582a22.378321 22.378321 0 0 1-22.378321-22.378321v-25.575224a22.378321 22.378321 0 1 1 44.756642 0v25.575224a22.378321 22.378321 0 0 1-22.378321 22.378321zM513.118916 863.275702a22.378321 22.378321 0 0 1-22.378321-22.378321v-25.575224a22.378321 22.378321 0 1 1 44.756642 0v25.575224a22.378321 22.378321 0 0 1-22.378321 22.378321z" fill="#4F46A3" /></svg>