<?xml version="1.0" encoding="iso-8859-1"?>
<!-- Uploaded to: SVG Repo, www.svgrepo.com, Generator: SVG Repo Mixer Tools -->
<svg height="800px" width="800px" version="1.1" id="Layer_1" xmlns="http://www.w3.org/2000/svg" xmlns:xlink="http://www.w3.org/1999/xlink" 
	 viewBox="0 0 512 512" xml:space="preserve">
<path style="fill:#F7B239;" d="M255.981,273.465l-77.611-77.6c-0.761-0.761-1.51-1.533-2.237-2.305
	c-40.543-42.951-39.794-110.863,2.237-152.894c20.737-20.737,48.288-32.151,77.611-32.151c29.311,0,56.874,11.413,77.6,32.151
	c20.726,20.726,32.139,48.288,32.139,77.6c0,28.233-10.584,54.841-29.879,75.272c-0.738,0.784-1.499,1.567-2.26,2.328
	L255.981,273.465z M255.981,225.291l53.501-53.512c19.602-19.602,26.2-47.278,19.795-72.308
	c-4.588-17.943-24.508-26.802-41.418-19.261c-9.744,4.338-20.533,6.757-31.878,6.757c-11.357,0-22.145-2.419-31.889-6.757
	c-16.91-7.541-36.83,1.317-41.418,19.261c-6.405,25.03,0.193,52.706,19.795,72.308L255.981,225.291z"/>
<path style="fill:#E09B2D;" d="M222.684,195.866l33.298,77.6l-77.611-77.6c-0.761-0.761-1.51-1.533-2.237-2.305
	c-40.543-42.951-39.794-110.863,2.237-152.894c20.737-20.737,48.288-32.151,77.611-32.151c-12.572,0-24.394,11.413-33.298,32.151
	c-18.023,42.031-18.352,109.944-0.954,152.894C222.036,194.332,222.366,195.105,222.684,195.866z"/>
<path style="fill:#4D4D4D;" d="M329.277,99.47c6.405,25.03-0.193,52.706-19.795,72.308l-53.501,53.512l-53.512-53.512
	c-19.602-19.602-26.2-47.278-19.795-72.308c4.588-17.943,24.508-26.802,41.418-19.261c9.744,4.338,20.533,6.757,31.889,6.757
	c11.345,0,22.134-2.419,31.878-6.757C304.769,72.669,324.689,81.527,329.277,99.47z"/>
<g>
	<path style="fill:#F7B239;" d="M363.46,242.064l38.181,261.418h-145.66V273.465l77.6-77.6c0.761-0.761,1.522-1.544,2.26-2.328
		C350.378,205.314,360.587,222.361,363.46,242.064z"/>
	<path style="fill:#F7B239;" d="M255.981,273.465v230.017H110.355l38.181-261.418c2.873-19.692,13.071-36.727,27.597-48.504
		c0.727,0.772,1.476,1.545,2.237,2.305L255.981,273.465z"/>
</g>
<path style="fill:#E09B2D;" d="M201.926,219.418l-23.556-23.553c-0.761-0.761-1.51-1.533-2.237-2.305
	c-14.525,11.777-24.723,28.812-27.597,48.504l-38.181,261.418h79.349l5.206-261.418
	C196.085,234.008,198.504,226.407,201.926,219.418z"/>
<g>
	<path style="fill:#FFFFFF;" d="M301.082,59.049c-1.629,0-3.274-0.467-4.73-1.44c-11.91-7.971-25.87-12.185-40.371-12.185
		c-4.704,0-8.517-3.814-8.517-8.517s3.814-8.517,8.517-8.517c17.887,0,35.123,5.208,49.845,15.062
		c3.909,2.617,4.957,7.906,2.342,11.815C306.526,57.721,303.829,59.049,301.082,59.049z"/>
	<path style="fill:#FFFFFF;" d="M351.177,363.003c-4.16,0-7.799-3.05-8.418-7.288l-11.697-80.093
		c-0.68-4.655,2.543-8.98,7.197-9.659c4.657-0.681,8.98,2.543,9.659,7.197l11.697,80.093c0.68,4.655-2.543,8.98-7.197,9.659
		C352.002,362.974,351.586,363.003,351.177,363.003z"/>
	<circle style="fill:#FFFFFF;" cx="335.373" cy="246.166" r="8.517"/>
</g>
<g>
	<path style="fill:#333333;" d="M410.071,502.251L371.89,240.835c-2.67-18.313-11.147-35.056-24.119-47.992
		c17.145-21.023,26.469-47.083,26.469-74.579c0-31.59-12.302-61.288-34.638-83.626C317.264,12.302,287.565,0,255.977,0
		c-31.59,0-61.288,12.302-83.626,34.639c-43.214,43.214-45.928,111.826-8.144,158.232c-12.959,12.932-21.428,29.665-24.098,47.962
		l-38.181,261.418c-0.358,2.447,0.367,4.93,1.985,6.802c1.617,1.872,3.969,2.947,6.443,2.947h291.286
		c2.473,0,4.825-1.075,6.443-2.947C409.705,507.181,410.429,504.699,410.071,502.251z M184.396,46.684
		c19.12-19.119,44.542-29.649,71.581-29.649s52.46,10.53,71.58,29.649c19.119,19.12,29.649,44.541,29.649,71.58
		s-10.529,52.46-29.649,71.58l-63.062,63.062v-24.091l51.016-51.016c20.921-20.921,29.36-51.744,22.023-80.442
		c-2.739-10.714-10.055-19.636-20.071-24.479c-10.392-5.024-22.448-5.187-33.074-0.447c-8.959,3.998-18.519,6.024-28.413,6.024
		c-9.894,0-19.454-2.026-28.413-6.022c-10.629-4.741-22.685-4.579-33.075,0.447c-10.015,4.844-17.331,13.767-20.069,24.479
		c-7.338,28.697,1.102,59.521,22.023,80.442l51.017,51.017v24.09l-63.062-63.062C144.927,150.375,144.927,86.154,184.396,46.684z
		 M255.976,213.242l-47.489-47.489c-16.687-16.689-23.419-41.28-17.564-64.177c1.515-5.925,5.415-10.671,10.982-13.363
		c3.013-1.457,6.279-2.187,9.562-2.187c3.104,0,6.223,0.653,9.156,1.961c11.158,4.976,23.052,7.5,35.353,7.5
		c12.3,0,24.195-2.523,35.352-7.501c6.031-2.692,12.853-2.61,18.717,0.226c5.567,2.693,9.468,7.439,10.983,13.363
		c5.854,22.898-0.876,47.489-17.564,64.177L255.976,213.242z M156.966,243.294c2.107-14.435,8.728-27.651,18.853-37.937l71.64,71.64
		v217.968h-127.25L156.966,243.294z M264.494,494.965V276.997l71.666-71.666c10.138,10.29,16.767,23.514,18.874,37.964
		l36.758,251.67H264.494z"/>
	<path style="fill:#333333;" d="M330.186,364.457c-4.342,1.809-6.395,6.796-4.586,11.139l25.551,61.322
		c1.363,3.271,4.529,5.243,7.866,5.243c1.091,0,2.202-0.211,3.273-0.658c4.342-1.809,6.395-6.796,4.586-11.139l-25.551-61.322
		C339.513,364.701,334.526,362.646,330.186,364.457z"/>
	<path style="fill:#333333;" d="M181.818,364.457c-4.342-1.809-9.328,0.243-11.139,4.586l-25.551,61.322
		c-1.809,4.343,0.244,9.329,4.586,11.139c1.071,0.446,2.18,0.658,3.273,0.658c3.335,0,6.503-1.973,7.866-5.243l25.551-61.322
		C188.213,371.253,186.16,366.266,181.818,364.457z"/>
</g>
</svg>