<?xml version="1.0" encoding="iso-8859-1"?>
<!-- Uploaded to: SVG Repo, www.svgrepo.com, Generator: SVG Repo Mixer Tools -->
<svg version="1.1" id="Layer_1" xmlns="http://www.w3.org/2000/svg" xmlns:xlink="http://www.w3.org/1999/xlink" 
	 viewBox="0 0 512 512" xml:space="preserve">
<g>
	<polygon style="fill:#D2E3F7;" points="131.851,448.254 131.851,499.743 46.598,499.743 46.598,448.254 49.315,448.254 	"/>
	<rect x="131.851" y="448.254" style="fill:#D2E3F7;" width="124.148" height="51.49"/>
	<polygon style="fill:#D2E3F7;" points="465.4,448.254 465.4,499.743 394.347,499.743 394.347,448.254 462.683,448.254 	"/>
	<polygon style="fill:#D2E3F7;" points="394.347,448.254 394.347,499.743 380.147,499.743 255.999,499.743 255.999,448.254 	"/>
</g>
<g>
	<path style="fill:#97C2F7;" d="M394.347,448.254H255.999V196.202L353.4,94.515c6.642-6.931,10.53-15.541,11.629-24.453l0.338,0.036
		c5.398-5.12,12.691-8.272,20.721-8.272c16.652,0,30.14,13.488,30.14,30.128c0,4.552-1.014,8.863-2.826,12.728
		c5.518-6.11,13.5-9.962,22.376-9.962c16.64,0,30.14,13.488,30.14,30.14c0,10.3-5.18,19.393-13.078,24.827
		c3.828-1.751,8.078-2.741,12.559-2.741c16.64,0,30.128,13.488,30.128,30.128s-13.488,30.128-30.128,30.128
		c8.32,0,15.855,3.369,21.301,8.827c5.458,5.458,8.827,12.993,8.827,21.313c0,16.64-13.488,30.128-30.128,30.128
		c8.32,0,15.855,3.369,21.301,8.827c5.458,5.446,8.827,12.981,8.827,21.301c0,16.64-13.488,30.128-30.128,30.128
		c8.32,0,15.855,3.369,21.301,8.827c5.458,5.446,8.827,12.981,8.827,21.301c0,16.64-13.488,30.128-30.128,30.128
		c8.32,0,15.855,3.381,21.301,8.827c5.458,5.458,8.827,12.993,8.827,21.313c0,16.64-13.488,30.128-30.128,30.128h-2.717H394.347z"/>
	<path style="fill:#97C2F7;" d="M131.851,448.254H49.315h-2.717c-16.64,0-30.128-13.488-30.128-30.128
		c0-8.32,3.369-15.855,8.827-21.313c5.446-5.446,12.981-8.827,21.301-8.827c-16.64,0-30.128-13.488-30.128-30.128
		c0-8.32,3.369-15.855,8.827-21.301c5.446-5.458,12.981-8.827,21.301-8.827c-16.64,0-30.128-13.488-30.128-30.128
		c0-8.32,3.369-15.855,8.827-21.301c5.446-5.458,12.981-8.827,21.301-8.827c-16.64,0-30.128-13.488-30.128-30.128
		c0-8.32,3.369-15.855,8.827-21.313c5.446-5.458,12.981-8.827,21.301-8.827c-16.64,0-30.128-13.488-30.128-30.128
		s13.488-30.128,30.128-30.128c4.48,0,8.731,0.99,12.558,2.741c-7.897-5.434-13.078-14.527-13.078-24.827
		c0-16.652,13.5-30.14,30.14-30.14c8.875,0,16.857,3.852,22.376,9.962c-1.811-3.864-2.826-8.175-2.826-12.728
		c0-16.64,13.488-30.128,30.14-30.128c8.26,0,15.746,3.333,21.192,8.731c1.171,8.706,5.035,17.135,11.52,23.934l97.256,101.832
		l0.121-0.121v252.051L131.851,448.254L131.851,448.254z"/>
</g>
<path style="fill:#D2E3F7;" d="M354.293,36.094c8.694,9.528,12.232,22.002,10.735,33.968c-1.099,8.912-4.987,17.522-11.629,24.453
	l-97.401,101.688v-59.701l-0.362-0.362l12.075-11.846c30.309-29.73,57.564-66.536,57.564-106.18l0.374-1.075
	C336.904,21.205,346.734,27.81,354.293,36.094z"/>
<path style="fill:#6F97C7;" d="M325.65,17.038l-0.374,1.075c0,39.644-27.254,76.45-57.564,106.18l-12.075,11.846l-0.374,0.362
	l-12.498-12.583c-29.355-29.525-56.03-66.862-56.03-105.805l-0.374-1.051c8.67-3.212,18.186-4.987,28.16-4.987h83.067
	C307.525,12.075,317.004,13.838,325.65,17.038z"/>
<path style="fill:#D2E3F7;" d="M255.262,136.501l0.374-0.362l0.362,0.362v59.701l-0.121,0.121L158.622,94.491
	c-6.485-6.798-10.349-15.227-11.52-23.934c-1.642-12.112,1.872-24.791,10.675-34.439c7.547-8.272,17.352-14.877,28.583-19.055
	l0.374,1.051c0,38.943,26.675,76.281,56.03,105.805L255.262,136.501z"/>
<g>
	<path style="fill:#2E1C10;" d="M495.249,207.502c-0.103-0.104-0.208-0.208-0.313-0.31c7.814-7.664,12.667-18.335,12.667-30.117
		c0-19.466-13.247-35.896-31.199-40.747c1.042-3.688,1.589-7.541,1.589-11.466c0-23.278-18.938-42.216-42.216-42.216
		c-2.817,0-5.607,0.284-8.328,0.834c-3.934-19.224-20.985-33.729-41.361-33.729c-3.541,0-7.021,0.447-10.381,1.297
		c-2.194-8.513-6.435-16.454-12.494-23.094c-8.917-9.769-20.455-17.459-33.371-22.238C319.598,1.922,308.747,0,297.587,0H214.52
		c-11.192,0-22.078,1.931-32.372,5.746c-12.882,4.793-24.394,12.481-33.292,22.233c-6.063,6.646-10.294,14.578-12.487,23.08
		c-3.38-0.86-6.887-1.308-10.46-1.308c-20.375,0-37.425,14.505-41.361,33.729c-2.723-0.551-5.511-0.834-8.328-0.834
		c-23.278,0-42.216,18.938-42.216,42.216c0,3.925,0.547,7.778,1.589,11.466c-17.953,4.852-31.198,21.282-31.198,40.747
		c0,11.783,4.854,22.454,12.667,30.117c-0.101,0.099-0.202,0.198-0.302,0.298c-7.975,7.973-12.365,18.575-12.365,29.853
		c0,11.783,4.853,22.453,12.666,30.116c-0.098,0.097-0.196,0.193-0.292,0.29C8.789,275.712,4.394,286.314,4.394,297.6
		c0,11.782,4.854,22.453,12.666,30.116c-0.098,0.097-0.194,0.192-0.291,0.29c-7.981,7.963-12.375,18.562-12.375,29.851
		c0,11.783,4.854,22.454,12.667,30.117c-0.101,0.099-0.202,0.198-0.302,0.298c-7.975,7.973-12.365,18.574-12.365,29.853
		c0,19.077,12.722,35.239,30.128,40.444v41.174c0,6.668,5.407,12.075,12.075,12.075h85.236L255.982,512c0.006,0,0.012,0,0.018,0
		s0.012,0,0.018,0l124.13-0.181h85.254c6.668,0,12.075-5.407,12.075-12.075V458.57c17.407-5.207,30.128-21.368,30.128-40.444
		c0-11.278-4.392-21.88-12.363-29.851c-0.101-0.1-0.203-0.2-0.304-0.301c7.814-7.664,12.667-18.335,12.667-30.117
		c0-11.288-4.396-21.888-12.354-29.83c-0.104-0.103-0.208-0.206-0.312-0.309c7.814-7.664,12.666-18.334,12.666-30.116
		c0-11.287-4.395-21.888-12.354-29.831c-0.104-0.103-0.208-0.206-0.312-0.309c7.814-7.664,12.666-18.334,12.666-30.116
		C507.603,226.065,503.213,215.464,495.249,207.502z M345.373,44.232c5.991,6.565,8.787,15.432,7.672,24.351
		c-0.82,6.644-3.711,12.722-8.365,17.578l-76.606,79.976v-25.29l8.094-7.936c34.577-33.916,54.225-65.835,59.632-97.028
		C339.32,38.35,342.549,41.138,345.373,44.232z M297.587,24.151c5.186,0,10.273,0.555,15.203,1.656
		c-2.843,27.579-20.81,57.765-53.534,89.866l-3.881,3.807l-4.048-4.075c-31.842-32.025-49.332-62.115-52.115-89.578
		c4.967-1.112,10.087-1.675,15.308-1.675H297.587z M166.698,44.257c2.821-3.093,6.045-5.878,9.555-8.344
		c5.442,30.86,24.861,63.242,57.943,96.516l9.727,9.792v24.1l-76.562-80.165c-4.552-4.771-7.418-10.722-8.292-17.222
		C157.845,59.906,160.626,50.913,166.698,44.257z M28.545,418.125c0-4.827,1.879-9.362,5.293-12.775
		c3.41-3.411,7.942-5.29,12.76-5.29c6.668,0,12.075-5.407,12.075-12.075s-5.407-12.075-12.075-12.075
		c-9.954,0-18.053-8.099-18.053-18.053c0-4.825,1.875-9.355,5.301-12.771c3.397-3.405,7.926-5.281,12.753-5.281
		c6.668,0,12.075-5.407,12.075-12.075c0-6.668-5.407-12.075-12.075-12.075c-9.954,0-18.053-8.099-18.053-18.053
		c0-4.825,1.877-9.355,5.301-12.772c3.397-3.405,7.926-5.281,12.753-5.281c6.668,0,12.075-5.407,12.075-12.075
		c0-6.668-5.407-12.075-12.075-12.075c-9.954,0-18.053-8.099-18.053-18.053c0-4.827,1.879-9.362,5.301-12.784
		c3.397-3.405,7.926-5.281,12.753-5.281c6.668,0,12.075-5.407,12.075-12.075c0-6.668-5.407-12.075-12.075-12.075
		c-9.954,0-18.053-8.099-18.053-18.053c0-9.954,8.099-18.052,18.053-18.052c2.613,0,5.148,0.554,7.535,1.646
		c5.694,2.605,12.438,0.424,15.527-5.025c3.089-5.448,1.501-12.353-3.658-15.905c-4.914-3.381-7.848-8.943-7.848-14.878
		c0-9.961,8.104-18.065,18.065-18.065c5.093,0,9.983,2.18,13.415,5.98c4.005,4.438,10.66,5.275,15.644,1.965
		c4.981-3.31,6.79-9.768,4.252-15.182c-1.118-2.386-1.686-4.944-1.686-7.603c0-9.954,8.104-18.053,18.065-18.053
		c3.652,0,7.14,1.092,10.104,3.108c2.188,9.682,6.924,18.531,13.877,25.82l94.031,98.456v286.379h-99.997v-27.339h23.318
		c6.668,0,12.075-5.407,12.075-12.075c0-6.668-5.407-12.076-12.075-12.076h-23.318V207.771c0-6.668-5.407-12.075-12.075-12.075
		c-6.668,0-12.075,5.407-12.075,12.075v228.408h-70.46c-0.46,0-0.912,0.031-1.358,0.081c-0.447-0.049-0.898-0.081-1.358-0.081
		C36.644,436.178,28.545,428.079,28.545,418.125z M58.674,460.329h61.102v27.339H58.674V460.329z M380.129,487.668H268.074v-27.339
		h114.198v27.339h-2.126L380.129,487.668L380.129,487.668z M406.423,487.668v-27.339h46.901v27.339L406.423,487.668L406.423,487.668
		z M465.4,219.278c4.825,0,9.355,1.875,12.763,5.293c3.411,3.41,5.29,7.946,5.29,12.772c0,9.954-8.099,18.053-18.053,18.053
		c-6.668,0-12.075,5.407-12.075,12.075c0,6.668,5.407,12.075,12.075,12.075c4.825,0,9.355,1.875,12.771,5.3
		c3.405,3.398,5.282,7.928,5.282,12.754c0,9.954-8.099,18.053-18.053,18.053c-6.668,0-12.076,5.407-12.076,12.076
		c0,6.668,5.407,12.075,12.076,12.075c4.825,0,9.355,1.875,12.772,5.3c3.405,3.397,5.281,7.926,5.281,12.753
		c0,9.954-8.099,18.053-18.053,18.053c-6.668,0-12.075,5.407-12.075,12.075s5.407,12.075,12.075,12.075
		c4.818,0,9.35,1.879,12.763,5.293c3.411,3.41,5.29,7.946,5.29,12.772c0,9.954-8.099,18.053-18.053,18.053
		c-0.46,0-0.912,0.031-1.358,0.081c-0.447-0.049-0.898-0.081-1.358-0.081h-56.26V207.771c0-6.668-5.407-12.075-12.075-12.075
		s-12.075,5.407-12.075,12.075v228.408H268.074V201.053l94.044-98.183c7.003-7.307,11.757-16.184,13.944-25.902
		c2.951-1.983,6.417-3.065,10.027-3.065c9.961,0,18.065,8.099,18.065,18.053c0,2.659-0.568,5.217-1.686,7.603
		c-2.539,5.415-0.729,11.873,4.252,15.182c4.986,3.312,11.637,2.474,15.644-1.965c3.433-3.8,8.322-5.98,13.415-5.98
		c9.961,0,18.065,8.104,18.065,18.065c0,5.935-2.934,11.497-7.848,14.878c-5.159,3.55-6.748,10.456-3.658,15.905
		c3.09,5.45,9.831,7.633,15.527,5.025c2.389-1.092,4.922-1.646,7.535-1.646c9.954,0,18.053,8.098,18.053,18.052
		c0,9.954-8.099,18.053-18.053,18.053c-6.668,0-12.076,5.407-12.076,12.075C453.324,213.871,458.731,219.278,465.4,219.278z"/>
	<path style="fill:#2E1C10;" d="M204.978,460.329c6.678,0,12.075-5.398,12.075-12.075c0-6.666-5.398-12.075-12.075-12.075
		c-6.666,0-12.075,5.41-12.075,12.075C192.902,454.931,198.312,460.329,204.978,460.329z"/>
</g>
</svg>