<?xml version="1.0" encoding="iso-8859-1"?>
<!-- Uploaded to: SVG Repo, www.svgrepo.com, Generator: SVG Repo Mixer Tools -->
<svg fill="#000000" height="800px" width="800px" version="1.1" id="Capa_1" xmlns="http://www.w3.org/2000/svg" xmlns:xlink="http://www.w3.org/1999/xlink" 
	 viewBox="0 0 407.268 407.268" xml:space="preserve">
<path id="XMLID_843_" d="M147.284,363.856c-4.971,0-9-4.029-9-9v-57.171c0-4.971,4.029-9,9-9s9,4.029,9,9v57.171
	C156.284,359.827,152.255,363.856,147.284,363.856z M260.858,363.856c4.971,0,9-4.029,9-9v-57.171c0-4.971-4.029-9-9-9s-9,4.029-9,9
	v57.171C251.858,359.827,255.888,363.856,260.858,363.856z M264.261,199.156c0-4.971-4.029-9-9-9h-14.677c-4.971,0-9,4.029-9,9
	s4.029,9,9,9h14.677C260.231,208.156,264.261,204.127,264.261,199.156z M376.791,252.774l-4.573,61.271
	c-0.421,5.629-2.165,10.442-4.891,14.063c-0.016,0.078-0.032,0.157-0.05,0.235l-6.435,28.494c-0.927,4.104-4.572,7.018-8.779,7.018
	h-56.278c-2.735,0-5.322-1.244-7.03-3.381s-2.351-4.935-1.749-7.603l6.198-27.43c-2.647-4.011-3.739-8.644-3.092-13.306
	l8.047-57.983l-22.477-82.093c-1.313-4.795,1.51-9.745,6.304-11.058c4.794-1.314,9.745,1.511,11.058,6.304l22.965,83.876
	c0.322,1.177,0.401,2.406,0.234,3.614l-8.301,59.815c-0.265,2.021,2.622,2.749,3.149,2.749h41.755
	c0.429-0.462,1.226-2.028,1.423-4.658l4.458-59.74l-28.802-106.993c-3.988-14.82-12.905-30.654-25.974-30.654h-17.425l0.396,1.817
	c2.742,12.582-3.52,25.519-15.953,32.957c-4.265,2.549-9.792,1.161-12.344-3.104s-1.163-9.792,3.103-12.344
	c4.528-2.709,8.904-7.725,7.606-13.68l-8.997-41.335c-1.482-6.81-5.231-20.878-12.936-33.855v59.838
	c0,32.656-5.024,39.422-17.404,52.887c-4.506,4.901-10.027,10.906-16.927,20.559c0.002,0.086,0.003,0.172,0.003,0.259v209.952
	h78.525c12.869,0.908,11.113-7.835,11.113-7.835c0-4.971,4.029-9,9-9s9,4.029,9,9v7.374c0,10.697-12.244,18.461-29.113,18.461
	H116.546c-16.869,0-29.112-7.764-29.112-18.461v-7.374c0-4.971,4.029-9,9-9s9,4.029,9,9c0,0-1.8,7.576,11.112,7.835h78.527v-209.71
	c-6.892-9.88-12.458-16.005-16.984-20.987c-12.338-13.58-17.345-20.36-17.345-52.217V45.776
	c-7.705,12.977-11.452,27.043-12.935,33.853l-8.999,41.333c-1.297,5.96,3.078,10.976,7.604,13.684
	c4.266,2.551,5.656,8.077,3.104,12.343c-2.552,4.266-8.078,5.657-12.344,3.104c-12.431-7.435-18.693-20.372-15.953-32.959
	l0.396-1.817h-18.302c-13.066,0-21.983,15.835-25.971,30.653L48.542,252.963l4.46,59.743c0.195,2.628,0.991,4.192,1.42,4.655
	l41.756,0.001c0.527,0,3.269-0.854,3.151-2.751l-8.301-59.813c-0.167-1.208-0.088-2.438,0.234-3.614l22.964-83.876
	c1.313-4.794,6.267-7.613,11.057-6.304c4.794,1.313,7.617,6.263,6.304,11.058l-22.477,82.093l8.047,57.984
	c0.646,4.662-0.446,9.294-3.092,13.303l6.197,27.432c0.603,2.668-0.041,5.466-1.749,7.603s-4.295,3.381-7.03,3.381H55.207
	c-4.207,0-7.852-2.913-8.779-7.017l-6.438-28.494c-0.018-0.078-0.034-0.156-0.049-0.233c-2.727-3.622-4.47-8.438-4.889-14.069
	l-4.575-61.269c-0.076-1.012,0.021-2.029,0.285-3.01l29.202-108.474c7.41-27.535,23.617-43.975,43.353-43.975h22.221l4.684-21.517
	C140.554,28.337,168.162,0,204.073,0s63.519,28.337,73.852,75.8l4.683,21.517h21.343c19.738,0,35.946,16.439,43.355,43.977
	l29.201,108.472C376.77,250.745,376.866,251.763,376.791,252.774z M60.029,335.362l2.371,10.494h37.824l-2.387-10.567
	C97.284,335.338,60.029,335.362,60.029,335.362z M229.4,45.256c0-15.027-11.359-27.253-25.322-27.256c-0.002,0-0.003,0-0.006,0
	c-13.966,0-25.329,12.227-25.329,27.256v61.098c0,26.17,2.684,29.124,12.667,40.112c3.362,3.701,7.572,8.334,12.526,14.752
	c5.091-6.508,9.385-11.179,12.809-14.902c9.974-10.848,12.654-13.764,12.654-40.704V45.256z M347.239,335.362
	c0,0-37.254-0.024-37.806-0.073l-2.388,10.567h37.824L347.239,335.362z"/>
</svg>